<?xml version="1.0" encoding="UTF-8" standalone="no"?>
<!DOCTYPE svg PUBLIC "-//W3C//DTD SVG 1.1//EN"
 "http://www.w3.org/Graphics/SVG/1.1/DTD/svg11.dtd">
<!-- Generated by graphviz version 2.26.3 (20100126.1600)
 -->
<!-- Title: controllers_diagram Pages: 1 -->
<svg width="647pt" height="727pt"
 viewBox="0.00 0.00 647.00 727.00" xmlns="http://www.w3.org/2000/svg" xmlns:xlink="http://www.w3.org/1999/xlink">
<g id="graph1" class="graph" transform="scale(1 1) rotate(0) translate(4 723)">
<title>controllers_diagram</title>
<polygon fill="none" stroke="none" points="-4,5 -4,-723 644,-723 644,5 -4,5"/>
<!-- _diagram_info -->
<g id="node1" class="node"><title>_diagram_info</title>
<text text-anchor="start" x="349" y="-78.3" font-family="Times Roman,serif" font-size="13.00">Controllers diagram</text>
<text text-anchor="start" x="349" y="-61.3" font-family="Times Roman,serif" font-size="13.00">Date: Oct 19 2015 &#45; 23:36</text>
<text text-anchor="start" x="349" y="-44.3" font-family="Times Roman,serif" font-size="13.00">Migration version: 20151016120121</text>
<text text-anchor="start" x="349" y="-27.3" font-family="Times Roman,serif" font-size="13.00">Generated by RailRoady 1.4.0</text>
<text text-anchor="start" x="349" y="-10.3" font-family="Times Roman,serif" font-size="13.00">http://railroady.prestonlee.com</text>
</g>
<!-- ApplicationController -->
<g id="node2" class="node"><title>ApplicationController</title>
<polyline fill="none" stroke="black" points="13,-21.5 130,-21.5 "/>
<path fill="none" stroke="black" d="M130,-21.5C136,-21.5 142,-27.5 142,-33.5"/>
<polyline fill="none" stroke="black" points="142,-33.5 142,-133.5 "/>
<path fill="none" stroke="black" d="M142,-133.5C142,-139.5 136,-145.5 130,-145.5"/>
<polyline fill="none" stroke="black" points="130,-145.5 13,-145.5 "/>
<path fill="none" stroke="black" d="M13,-145.5C7,-145.5 1,-139.5 1,-133.5"/>
<polyline fill="none" stroke="black" points="1,-133.5 1,-33.5 "/>
<path fill="none" stroke="black" d="M1,-33.5C1,-27.5 7,-21.5 13,-21.5"/>
<text text-anchor="middle" x="71.5" y="-128.9" font-family="Times Roman,serif" font-size="14.00">ApplicationController</text>
<polyline fill="none" stroke="black" points="1,-118.5 142,-118.5 "/>
<text text-anchor="start" x="9" y="-101.9" font-family="Times Roman,serif" font-size="14.00">is_logged_in</text>
<polyline fill="none" stroke="black" points="1,-91.5 142,-91.5 "/>
<polyline fill="none" stroke="black" points="1,-67.5 142,-67.5 "/>
<text text-anchor="start" x="9" y="-50.9" font-family="Times Roman,serif" font-size="14.00">_layout</text>
<text text-anchor="start" x="9" y="-31.9" font-family="Times Roman,serif" font-size="14.00">current_user</text>
</g>
<!-- AuthenticationController -->
<g id="node3" class="node"><title>AuthenticationController</title>
<polyline fill="none" stroke="black" points="53,-441.5 190,-441.5 "/>
<path fill="none" stroke="black" d="M190,-441.5C196,-441.5 202,-447.5 202,-453.5"/>
<polyline fill="none" stroke="black" points="202,-453.5 202,-629.5 "/>
<path fill="none" stroke="black" d="M202,-629.5C202,-635.5 196,-641.5 190,-641.5"/>
<polyline fill="none" stroke="black" points="190,-641.5 53,-641.5 "/>
<path fill="none" stroke="black" d="M53,-641.5C47,-641.5 41,-635.5 41,-629.5"/>
<polyline fill="none" stroke="black" points="41,-629.5 41,-453.5 "/>
<path fill="none" stroke="black" d="M41,-453.5C41,-447.5 47,-441.5 53,-441.5"/>
<text text-anchor="middle" x="121.5" y="-624.9" font-family="Times Roman,serif" font-size="14.00">AuthenticationController</text>
<polyline fill="none" stroke="black" points="41,-614.5 202,-614.5 "/>
<text text-anchor="start" x="49" y="-597.9" font-family="Times Roman,serif" font-size="14.00">create_user</text>
<text text-anchor="start" x="49" y="-578.9" font-family="Times Roman,serif" font-size="14.00">login</text>
<text text-anchor="start" x="49" y="-559.9" font-family="Times Roman,serif" font-size="14.00">logout</text>
<text text-anchor="start" x="49" y="-540.9" font-family="Times Roman,serif" font-size="14.00">process_login</text>
<text text-anchor="start" x="49" y="-521.9" font-family="Times Roman,serif" font-size="14.00">register</text>
<polyline fill="none" stroke="black" points="41,-511.5 202,-511.5 "/>
<polyline fill="none" stroke="black" points="41,-487.5 202,-487.5 "/>
<text text-anchor="start" x="49" y="-470.9" font-family="Times Roman,serif" font-size="14.00">_layout</text>
<text text-anchor="start" x="49" y="-451.9" font-family="Times Roman,serif" font-size="14.00">user_params</text>
</g>
<!-- BookingController -->
<g id="node4" class="node"><title>BookingController</title>
<polyline fill="none" stroke="black" points="353,-141.5 453,-141.5 "/>
<path fill="none" stroke="black" d="M453,-141.5C459,-141.5 465,-147.5 465,-153.5"/>
<polyline fill="none" stroke="black" points="465,-153.5 465,-386.5 "/>
<path fill="none" stroke="black" d="M465,-386.5C465,-392.5 459,-398.5 453,-398.5"/>
<polyline fill="none" stroke="black" points="453,-398.5 353,-398.5 "/>
<path fill="none" stroke="black" d="M353,-398.5C347,-398.5 341,-392.5 341,-386.5"/>
<polyline fill="none" stroke="black" points="341,-386.5 341,-153.5 "/>
<path fill="none" stroke="black" d="M341,-153.5C341,-147.5 347,-141.5 353,-141.5"/>
<text text-anchor="middle" x="403" y="-381.9" font-family="Times Roman,serif" font-size="14.00">BookingController</text>
<polyline fill="none" stroke="black" points="341,-371.5 465,-371.5 "/>
<text text-anchor="start" x="349" y="-354.9" font-family="Times Roman,serif" font-size="14.00">list</text>
<text text-anchor="start" x="349" y="-335.9" font-family="Times Roman,serif" font-size="14.00">new_from_listing</text>
<text text-anchor="start" x="349" y="-316.9" font-family="Times Roman,serif" font-size="14.00">new_from_tenant</text>
<text text-anchor="start" x="349" y="-297.9" font-family="Times Roman,serif" font-size="14.00">owner_accept</text>
<text text-anchor="start" x="349" y="-278.9" font-family="Times Roman,serif" font-size="14.00">owner_decline</text>
<text text-anchor="start" x="349" y="-259.9" font-family="Times Roman,serif" font-size="14.00">save</text>
<text text-anchor="start" x="349" y="-240.9" font-family="Times Roman,serif" font-size="14.00">tenant_accept</text>
<text text-anchor="start" x="349" y="-221.9" font-family="Times Roman,serif" font-size="14.00">tenant_decline</text>
<polyline fill="none" stroke="black" points="341,-211.5 465,-211.5 "/>
<polyline fill="none" stroke="black" points="341,-187.5 465,-187.5 "/>
<text text-anchor="start" x="349" y="-170.9" font-family="Times Roman,serif" font-size="14.00">_layout</text>
<text text-anchor="start" x="349" y="-151.9" font-family="Times Roman,serif" font-size="14.00">booking_params</text>
</g>
<!-- ListingController -->
<g id="node5" class="node"><title>ListingController</title>
<polyline fill="none" stroke="black" points="193,-81.5 283,-81.5 "/>
<path fill="none" stroke="black" d="M283,-81.5C289,-81.5 295,-87.5 295,-93.5"/>
<polyline fill="none" stroke="black" points="295,-93.5 295,-383.5 "/>
<path fill="none" stroke="black" d="M295,-383.5C295,-389.5 289,-395.5 283,-395.5"/>
<polyline fill="none" stroke="black" points="283,-395.5 193,-395.5 "/>
<path fill="none" stroke="black" d="M193,-395.5C187,-395.5 181,-389.5 181,-383.5"/>
<polyline fill="none" stroke="black" points="181,-383.5 181,-93.5 "/>
<path fill="none" stroke="black" d="M181,-93.5C181,-87.5 187,-81.5 193,-81.5"/>
<text text-anchor="middle" x="238" y="-378.9" font-family="Times Roman,serif" font-size="14.00">ListingController</text>
<polyline fill="none" stroke="black" points="181,-368.5 295,-368.5 "/>
<text text-anchor="start" x="189" y="-351.9" font-family="Times Roman,serif" font-size="14.00">delete</text>
<text text-anchor="start" x="189" y="-332.9" font-family="Times Roman,serif" font-size="14.00">edit</text>
<text text-anchor="start" x="189" y="-313.9" font-family="Times Roman,serif" font-size="14.00">list</text>
<text text-anchor="start" x="189" y="-294.9" font-family="Times Roman,serif" font-size="14.00">list_featured</text>
<text text-anchor="start" x="189" y="-275.9" font-family="Times Roman,serif" font-size="14.00">new</text>
<text text-anchor="start" x="189" y="-256.9" font-family="Times Roman,serif" font-size="14.00">results</text>
<text text-anchor="start" x="189" y="-237.9" font-family="Times Roman,serif" font-size="14.00">save</text>
<text text-anchor="start" x="189" y="-218.9" font-family="Times Roman,serif" font-size="14.00">search</text>
<text text-anchor="start" x="189" y="-199.9" font-family="Times Roman,serif" font-size="14.00">update</text>
<text text-anchor="start" x="189" y="-180.9" font-family="Times Roman,serif" font-size="14.00">user_listings</text>
<text text-anchor="start" x="189" y="-161.9" font-family="Times Roman,serif" font-size="14.00">view</text>
<polyline fill="none" stroke="black" points="181,-151.5 295,-151.5 "/>
<polyline fill="none" stroke="black" points="181,-127.5 295,-127.5 "/>
<text text-anchor="start" x="189" y="-110.9" font-family="Times Roman,serif" font-size="14.00">_layout</text>
<text text-anchor="start" x="189" y="-91.9" font-family="Times Roman,serif" font-size="14.00">listing_params</text>
</g>
<!-- PointController -->
<g id="node6" class="node"><title>PointController</title>
<polyline fill="none" stroke="black" points="513,-141.5 626,-141.5 "/>
<path fill="none" stroke="black" d="M626,-141.5C632,-141.5 638,-147.5 638,-153.5"/>
<polyline fill="none" stroke="black" points="638,-153.5 638,-253.5 "/>
<path fill="none" stroke="black" d="M638,-253.5C638,-259.5 632,-265.5 626,-265.5"/>
<polyline fill="none" stroke="black" points="626,-265.5 513,-265.5 "/>
<path fill="none" stroke="black" d="M513,-265.5C507,-265.5 501,-259.5 501,-253.5"/>
<polyline fill="none" stroke="black" points="501,-253.5 501,-153.5 "/>
<path fill="none" stroke="black" d="M501,-153.5C501,-147.5 507,-141.5 513,-141.5"/>
<text text-anchor="middle" x="569.5" y="-248.9" font-family="Times Roman,serif" font-size="14.00">PointController</text>
<polyline fill="none" stroke="black" points="501,-238.5 638,-238.5 "/>
<text text-anchor="start" x="509" y="-221.9" font-family="Times Roman,serif" font-size="14.00">list</text>
<text text-anchor="start" x="509" y="-202.9" font-family="Times Roman,serif" font-size="14.00">process_transaction</text>
<polyline fill="none" stroke="black" points="501,-192.5 638,-192.5 "/>
<polyline fill="none" stroke="black" points="501,-168.5 638,-168.5 "/>
<text text-anchor="start" x="509" y="-151.9" font-family="Times Roman,serif" font-size="14.00">_layout</text>
</g>
<!-- PropertyController -->
<g id="node7" class="node"><title>PropertyController</title>
<polyline fill="none" stroke="black" points="33,-181.5 135,-181.5 "/>
<path fill="none" stroke="black" d="M135,-181.5C141,-181.5 147,-187.5 147,-193.5"/>
<polyline fill="none" stroke="black" points="147,-193.5 147,-388.5 "/>
<path fill="none" stroke="black" d="M147,-388.5C147,-394.5 141,-400.5 135,-400.5"/>
<polyline fill="none" stroke="black" points="135,-400.5 33,-400.5 "/>
<path fill="none" stroke="black" d="M33,-400.5C27,-400.5 21,-394.5 21,-388.5"/>
<polyline fill="none" stroke="black" points="21,-388.5 21,-193.5 "/>
<path fill="none" stroke="black" d="M21,-193.5C21,-187.5 27,-181.5 33,-181.5"/>
<text text-anchor="middle" x="84" y="-383.9" font-family="Times Roman,serif" font-size="14.00">PropertyController</text>
<polyline fill="none" stroke="black" points="21,-373.5 147,-373.5 "/>
<text text-anchor="start" x="29" y="-356.9" font-family="Times Roman,serif" font-size="14.00">delete</text>
<text text-anchor="start" x="29" y="-337.9" font-family="Times Roman,serif" font-size="14.00">edit</text>
<text text-anchor="start" x="29" y="-318.9" font-family="Times Roman,serif" font-size="14.00">list</text>
<text text-anchor="start" x="29" y="-299.9" font-family="Times Roman,serif" font-size="14.00">new</text>
<text text-anchor="start" x="29" y="-280.9" font-family="Times Roman,serif" font-size="14.00">save</text>
<text text-anchor="start" x="29" y="-261.9" font-family="Times Roman,serif" font-size="14.00">update</text>
<polyline fill="none" stroke="black" points="21,-251.5 147,-251.5 "/>
<polyline fill="none" stroke="black" points="21,-227.5 147,-227.5 "/>
<text text-anchor="start" x="29" y="-210.9" font-family="Times Roman,serif" font-size="14.00">_layout</text>
<text text-anchor="start" x="29" y="-191.9" font-family="Times Roman,serif" font-size="14.00">property_params</text>
</g>
<!-- ReviewController -->
<g id="node8" class="node"><title>ReviewController</title>
<polyline fill="none" stroke="black" points="253,-441.5 395,-441.5 "/>
<path fill="none" stroke="black" d="M395,-441.5C401,-441.5 407,-447.5 407,-453.5"/>
<polyline fill="none" stroke="black" points="407,-453.5 407,-629.5 "/>
<path fill="none" stroke="black" d="M407,-629.5C407,-635.5 401,-641.5 395,-641.5"/>
<polyline fill="none" stroke="black" points="395,-641.5 253,-641.5 "/>
<path fill="none" stroke="black" d="M253,-641.5C247,-641.5 241,-635.5 241,-629.5"/>
<polyline fill="none" stroke="black" points="241,-629.5 241,-453.5 "/>
<path fill="none" stroke="black" d="M241,-453.5C241,-447.5 247,-441.5 253,-441.5"/>
<text text-anchor="middle" x="324" y="-624.9" font-family="Times Roman,serif" font-size="14.00">ReviewController</text>
<polyline fill="none" stroke="black" points="241,-614.5 407,-614.5 "/>
<text text-anchor="start" x="249" y="-597.9" font-family="Times Roman,serif" font-size="14.00">property</text>
<text text-anchor="start" x="249" y="-578.9" font-family="Times Roman,serif" font-size="14.00">property_save</text>
<text text-anchor="start" x="249" y="-559.9" font-family="Times Roman,serif" font-size="14.00">user</text>
<text text-anchor="start" x="249" y="-540.9" font-family="Times Roman,serif" font-size="14.00">user_save</text>
<polyline fill="none" stroke="black" points="241,-530.5 407,-530.5 "/>
<polyline fill="none" stroke="black" points="241,-506.5 407,-506.5 "/>
<text text-anchor="start" x="249" y="-489.9" font-family="Times Roman,serif" font-size="14.00">_layout</text>
<text text-anchor="start" x="249" y="-470.9" font-family="Times Roman,serif" font-size="14.00">property_review_params</text>
<text text-anchor="start" x="249" y="-451.9" font-family="Times Roman,serif" font-size="14.00">user_review_params</text>
</g>
<!-- TenantController -->
<g id="node9" class="node"><title>TenantController</title>
<polyline fill="none" stroke="black" points="453,-441.5 546,-441.5 "/>
<path fill="none" stroke="black" d="M546,-441.5C552,-441.5 558,-447.5 558,-453.5"/>
<polyline fill="none" stroke="black" points="558,-453.5 558,-705.5 "/>
<path fill="none" stroke="black" d="M558,-705.5C558,-711.5 552,-717.5 546,-717.5"/>
<polyline fill="none" stroke="black" points="546,-717.5 453,-717.5 "/>
<path fill="none" stroke="black" d="M453,-717.5C447,-717.5 441,-711.5 441,-705.5"/>
<polyline fill="none" stroke="black" points="441,-705.5 441,-453.5 "/>
<path fill="none" stroke="black" d="M441,-453.5C441,-447.5 447,-441.5 453,-441.5"/>
<text text-anchor="middle" x="499.5" y="-700.9" font-family="Times Roman,serif" font-size="14.00">TenantController</text>
<polyline fill="none" stroke="black" points="441,-690.5 558,-690.5 "/>
<text text-anchor="start" x="449" y="-673.9" font-family="Times Roman,serif" font-size="14.00">delete</text>
<text text-anchor="start" x="449" y="-654.9" font-family="Times Roman,serif" font-size="14.00">edit</text>
<text text-anchor="start" x="449" y="-635.9" font-family="Times Roman,serif" font-size="14.00">list</text>
<text text-anchor="start" x="449" y="-616.9" font-family="Times Roman,serif" font-size="14.00">new</text>
<text text-anchor="start" x="449" y="-597.9" font-family="Times Roman,serif" font-size="14.00">results</text>
<text text-anchor="start" x="449" y="-578.9" font-family="Times Roman,serif" font-size="14.00">save</text>
<text text-anchor="start" x="449" y="-559.9" font-family="Times Roman,serif" font-size="14.00">update</text>
<text text-anchor="start" x="449" y="-540.9" font-family="Times Roman,serif" font-size="14.00">user_tenants</text>
<text text-anchor="start" x="449" y="-521.9" font-family="Times Roman,serif" font-size="14.00">view</text>
<polyline fill="none" stroke="black" points="441,-511.5 558,-511.5 "/>
<polyline fill="none" stroke="black" points="441,-487.5 558,-487.5 "/>
<text text-anchor="start" x="449" y="-470.9" font-family="Times Roman,serif" font-size="14.00">_layout</text>
<text text-anchor="start" x="449" y="-451.9" font-family="Times Roman,serif" font-size="14.00">tenant_params</text>
</g>
</g>
</svg>
