<?xml version="1.0" encoding="UTF-8" standalone="no"?>
<!DOCTYPE svg PUBLIC "-//W3C//DTD SVG 1.1//EN"
 "http://www.w3.org/Graphics/SVG/1.1/DTD/svg11.dtd">
<!-- Generated by graphviz version 2.26.3 (20100126.1600)
 -->
<!-- Title: models_diagram Pages: 1 -->
<svg width="934pt" height="1764pt"
 viewBox="0.00 0.00 934.05 1764.00" xmlns="http://www.w3.org/2000/svg" xmlns:xlink="http://www.w3.org/1999/xlink">
<g id="graph1" class="graph" transform="scale(1 1) rotate(0) translate(4 1760)">
<title>models_diagram</title>
<polygon fill="none" stroke="none" points="-4,5 -4,-1760 931.049,-1760 931.049,5 -4,5"/>
<!-- _diagram_info -->
<g id="node1" class="node"><title>_diagram_info</title>
<text text-anchor="start" x="363.549" y="-1644.8" font-family="Times Roman,serif" font-size="13.00">Models diagram</text>
<text text-anchor="start" x="363.549" y="-1627.8" font-family="Times Roman,serif" font-size="13.00">Date: Oct 19 2015 &#45; 23:36</text>
<text text-anchor="start" x="363.549" y="-1610.8" font-family="Times Roman,serif" font-size="13.00">Migration version: 20151016120121</text>
<text text-anchor="start" x="363.549" y="-1593.8" font-family="Times Roman,serif" font-size="13.00">Generated by RailRoady 1.4.0</text>
<text text-anchor="start" x="363.549" y="-1576.8" font-family="Times Roman,serif" font-size="13.00">http://railroady.prestonlee.com</text>
</g>
<!-- Booking -->
<g id="node2" class="node"><title>Booking</title>
<polyline fill="none" stroke="black" points="287.549,-189 460.549,-189 "/>
<path fill="none" stroke="black" d="M460.549,-189C466.549,-189 472.549,-195 472.549,-201"/>
<polyline fill="none" stroke="black" points="472.549,-201 472.549,-611 "/>
<path fill="none" stroke="black" d="M472.549,-611C472.549,-617 466.549,-623 460.549,-623"/>
<polyline fill="none" stroke="black" points="460.549,-623 287.549,-623 "/>
<path fill="none" stroke="black" d="M287.549,-623C281.549,-623 275.549,-617 275.549,-611"/>
<polyline fill="none" stroke="black" points="275.549,-611 275.549,-201 "/>
<path fill="none" stroke="black" d="M275.549,-201C275.549,-195 281.549,-189 287.549,-189"/>
<text text-anchor="middle" x="374.049" y="-606.4" font-family="Times Roman,serif" font-size="14.00">Booking</text>
<polyline fill="none" stroke="black" points="275.549,-596 472.549,-596 "/>
<text text-anchor="start" x="283.549" y="-579.4" font-family="Times Roman,serif" font-size="14.00">id :INTEGER</text>
<text text-anchor="start" x="283.549" y="-560.4" font-family="Times Roman,serif" font-size="14.00">user_id :integer</text>
<text text-anchor="start" x="283.549" y="-541.4" font-family="Times Roman,serif" font-size="14.00">listing_id :integer</text>
<text text-anchor="start" x="283.549" y="-522.4" font-family="Times Roman,serif" font-size="14.00">start :date</text>
<text text-anchor="start" x="283.549" y="-503.4" font-family="Times Roman,serif" font-size="14.00">end :date</text>
<text text-anchor="start" x="283.549" y="-484.4" font-family="Times Roman,serif" font-size="14.00">owner_approved :boolean</text>
<text text-anchor="start" x="283.549" y="-465.4" font-family="Times Roman,serif" font-size="14.00">owner_approved_at :datetime</text>
<text text-anchor="start" x="283.549" y="-446.4" font-family="Times Roman,serif" font-size="14.00">created_at :datetime</text>
<text text-anchor="start" x="283.549" y="-427.4" font-family="Times Roman,serif" font-size="14.00">updated_at :datetime</text>
<text text-anchor="start" x="283.549" y="-408.4" font-family="Times Roman,serif" font-size="14.00">tenant_approved :boolean</text>
<text text-anchor="start" x="283.549" y="-389.4" font-family="Times Roman,serif" font-size="14.00">tenant_approved_at :datetime</text>
<text text-anchor="start" x="283.549" y="-370.4" font-family="Times Roman,serif" font-size="14.00">tenant_id :integer</text>
<text text-anchor="start" x="283.549" y="-351.4" font-family="Times Roman,serif" font-size="14.00">point_cost :integer</text>
<text text-anchor="start" x="283.549" y="-332.4" font-family="Times Roman,serif" font-size="14.00">owner_declined :boolean</text>
<text text-anchor="start" x="283.549" y="-313.4" font-family="Times Roman,serif" font-size="14.00">owner_declined_at :datetime</text>
<text text-anchor="start" x="283.549" y="-294.4" font-family="Times Roman,serif" font-size="14.00">tenant_declined :boolean</text>
<text text-anchor="start" x="283.549" y="-275.4" font-family="Times Roman,serif" font-size="14.00">tenant_declined_at :datetime</text>
<text text-anchor="start" x="283.549" y="-256.4" font-family="Times Roman,serif" font-size="14.00">tenant_reviewed :boolean</text>
<text text-anchor="start" x="283.549" y="-237.4" font-family="Times Roman,serif" font-size="14.00">tenant_reviewed_at :datetime</text>
<text text-anchor="start" x="283.549" y="-218.4" font-family="Times Roman,serif" font-size="14.00">owner_reviewed :boolean</text>
<text text-anchor="start" x="283.549" y="-199.4" font-family="Times Roman,serif" font-size="14.00">owner_reviewed_at :datetime</text>
</g>
<!-- PointLog -->
<g id="node4" class="node"><title>PointLog</title>
<polyline fill="none" stroke="black" points="593.049,-0.5 713.049,-0.5 "/>
<path fill="none" stroke="black" d="M713.049,-0.5C719.049,-0.5 725.049,-6.5 725.049,-12.5"/>
<polyline fill="none" stroke="black" points="725.049,-12.5 725.049,-137.5 "/>
<path fill="none" stroke="black" d="M725.049,-137.5C725.049,-143.5 719.049,-149.5 713.049,-149.5"/>
<polyline fill="none" stroke="black" points="713.049,-149.5 593.049,-149.5 "/>
<path fill="none" stroke="black" d="M593.049,-149.5C587.049,-149.5 581.049,-143.5 581.049,-137.5"/>
<polyline fill="none" stroke="black" points="581.049,-137.5 581.049,-12.5 "/>
<path fill="none" stroke="black" d="M581.049,-12.5C581.049,-6.5 587.049,-0.5 593.049,-0.5"/>
<text text-anchor="middle" x="653.049" y="-132.9" font-family="Times Roman,serif" font-size="14.00">PointLog</text>
<polyline fill="none" stroke="black" points="581.049,-122.5 725.049,-122.5 "/>
<text text-anchor="start" x="589.049" y="-105.9" font-family="Times Roman,serif" font-size="14.00">id :INTEGER</text>
<text text-anchor="start" x="589.049" y="-86.9" font-family="Times Roman,serif" font-size="14.00">booking_id :integer</text>
<text text-anchor="start" x="589.049" y="-67.9" font-family="Times Roman,serif" font-size="14.00">user_id :integer</text>
<text text-anchor="start" x="589.049" y="-48.9" font-family="Times Roman,serif" font-size="14.00">points :integer</text>
<text text-anchor="start" x="589.049" y="-29.9" font-family="Times Roman,serif" font-size="14.00">created_at :datetime</text>
<text text-anchor="start" x="589.049" y="-10.9" font-family="Times Roman,serif" font-size="14.00">updated_at :datetime</text>
</g>
<!-- Booking&#45;&gt;PointLog -->
<g id="edge2" class="edge"><title>Booking&#45;&gt;PointLog</title>
<path fill="none" stroke="#3e232b" d="M478.094,-282.563C513.246,-240.859 551.616,-195.338 583.441,-157.581"/>
<ellipse fill="none" stroke="#3e232b" cx="475.385" cy="-285.778" rx="4.00002" ry="4.00002"/>
<polygon fill="#3e232b" stroke="#3e232b" points="583.685,-157.293 593.57,-152.547 586.907,-153.469 590.13,-149.646 590.13,-149.646 590.13,-149.646 586.907,-153.469 586.689,-146.746 583.685,-157.293 583.685,-157.293"/>
</g>
<!-- Listing -->
<g id="node3" class="node"><title>Listing</title>
<polyline fill="none" stroke="black" points="50.049,-662.5 190.049,-662.5 "/>
<path fill="none" stroke="black" d="M190.049,-662.5C196.049,-662.5 202.049,-668.5 202.049,-674.5"/>
<polyline fill="none" stroke="black" points="202.049,-674.5 202.049,-913.5 "/>
<path fill="none" stroke="black" d="M202.049,-913.5C202.049,-919.5 196.049,-925.5 190.049,-925.5"/>
<polyline fill="none" stroke="black" points="190.049,-925.5 50.049,-925.5 "/>
<path fill="none" stroke="black" d="M50.049,-925.5C44.049,-925.5 38.049,-919.5 38.049,-913.5"/>
<polyline fill="none" stroke="black" points="38.049,-913.5 38.049,-674.5 "/>
<path fill="none" stroke="black" d="M38.049,-674.5C38.049,-668.5 44.049,-662.5 50.049,-662.5"/>
<text text-anchor="middle" x="120.049" y="-908.9" font-family="Times Roman,serif" font-size="14.00">Listing</text>
<polyline fill="none" stroke="black" points="38.049,-898.5 202.049,-898.5 "/>
<text text-anchor="start" x="46.049" y="-881.9" font-family="Times Roman,serif" font-size="14.00">id :INTEGER</text>
<text text-anchor="start" x="46.049" y="-862.9" font-family="Times Roman,serif" font-size="14.00">property_id :integer</text>
<text text-anchor="start" x="46.049" y="-843.9" font-family="Times Roman,serif" font-size="14.00">start :date</text>
<text text-anchor="start" x="46.049" y="-824.9" font-family="Times Roman,serif" font-size="14.00">end :date</text>
<text text-anchor="start" x="46.049" y="-805.9" font-family="Times Roman,serif" font-size="14.00">daily_points :integer</text>
<text text-anchor="start" x="46.049" y="-786.9" font-family="Times Roman,serif" font-size="14.00">active :boolean</text>
<text text-anchor="start" x="46.049" y="-767.9" font-family="Times Roman,serif" font-size="14.00">notes :text</text>
<text text-anchor="start" x="46.049" y="-748.9" font-family="Times Roman,serif" font-size="14.00">created_at :datetime</text>
<text text-anchor="start" x="46.049" y="-729.9" font-family="Times Roman,serif" font-size="14.00">updated_at :datetime</text>
<text text-anchor="start" x="46.049" y="-710.9" font-family="Times Roman,serif" font-size="14.00">featured :boolean</text>
<text text-anchor="start" x="46.049" y="-691.9" font-family="Times Roman,serif" font-size="14.00">user_id :integer</text>
<text text-anchor="start" x="46.049" y="-672.9" font-family="Times Roman,serif" font-size="14.00">minimum_rating :integer</text>
</g>
<!-- Listing&#45;&gt;Booking -->
<g id="edge4" class="edge"><title>Listing&#45;&gt;Booking</title>
<path fill="none" stroke="#8145ca" d="M206.566,-661.84C226.886,-630.801 248.749,-597.403 269.756,-565.314"/>
<ellipse fill="none" stroke="#8145ca" cx="204.356" cy="-665.217" rx="4.00002" ry="4.00002"/>
<polygon fill="#8145ca" stroke="#8145ca" points="269.888,-565.112 279.13,-559.21 272.627,-560.929 275.365,-556.745 275.365,-556.745 275.365,-556.745 272.627,-560.929 271.6,-554.281 269.888,-565.112 269.888,-565.112"/>
</g>
<!-- Property -->
<g id="node5" class="node"><title>Property</title>
<polyline fill="none" stroke="black" points="394.049,-1171 514.049,-1171 "/>
<path fill="none" stroke="black" d="M514.049,-1171C520.049,-1171 526.049,-1177 526.049,-1183"/>
<polyline fill="none" stroke="black" points="526.049,-1183 526.049,-1403 "/>
<path fill="none" stroke="black" d="M526.049,-1403C526.049,-1409 520.049,-1415 514.049,-1415"/>
<polyline fill="none" stroke="black" points="514.049,-1415 394.049,-1415 "/>
<path fill="none" stroke="black" d="M394.049,-1415C388.049,-1415 382.049,-1409 382.049,-1403"/>
<polyline fill="none" stroke="black" points="382.049,-1403 382.049,-1183 "/>
<path fill="none" stroke="black" d="M382.049,-1183C382.049,-1177 388.049,-1171 394.049,-1171"/>
<text text-anchor="middle" x="454.049" y="-1398.4" font-family="Times Roman,serif" font-size="14.00">Property</text>
<polyline fill="none" stroke="black" points="382.049,-1388 526.049,-1388 "/>
<text text-anchor="start" x="390.049" y="-1371.4" font-family="Times Roman,serif" font-size="14.00">id :INTEGER</text>
<text text-anchor="start" x="390.049" y="-1352.4" font-family="Times Roman,serif" font-size="14.00">title :text</text>
<text text-anchor="start" x="390.049" y="-1333.4" font-family="Times Roman,serif" font-size="14.00">address_1 :text</text>
<text text-anchor="start" x="390.049" y="-1314.4" font-family="Times Roman,serif" font-size="14.00">address_2 :text</text>
<text text-anchor="start" x="390.049" y="-1295.4" font-family="Times Roman,serif" font-size="14.00">suburb :text</text>
<text text-anchor="start" x="390.049" y="-1276.4" font-family="Times Roman,serif" font-size="14.00">state :text</text>
<text text-anchor="start" x="390.049" y="-1257.4" font-family="Times Roman,serif" font-size="14.00">post_code :text</text>
<text text-anchor="start" x="390.049" y="-1238.4" font-family="Times Roman,serif" font-size="14.00">description :text</text>
<text text-anchor="start" x="390.049" y="-1219.4" font-family="Times Roman,serif" font-size="14.00">created_at :datetime</text>
<text text-anchor="start" x="390.049" y="-1200.4" font-family="Times Roman,serif" font-size="14.00">updated_at :datetime</text>
<text text-anchor="start" x="390.049" y="-1181.4" font-family="Times Roman,serif" font-size="14.00">user_id :integer</text>
</g>
<!-- Property&#45;&gt;Listing -->
<g id="edge8" class="edge"><title>Property&#45;&gt;Listing</title>
<path fill="none" stroke="#d1f9e3" d="M376.588,-1199.61C364.369,-1183.96 352.124,-1167.7 341.049,-1152 291.892,-1082.31 241.603,-1001.72 201.441,-934.671"/>
<ellipse fill="none" stroke="#d1f9e3" cx="379.351" cy="-1203.13" rx="4.00002" ry="4.00002"/>
<polygon fill="#d1f9e3" stroke="#d1f9e3" points="201.223,-934.307 199.956,-923.415 198.658,-930.015 196.093,-925.723 196.093,-925.723 196.093,-925.723 198.658,-930.015 192.231,-928.032 201.223,-934.307 201.223,-934.307"/>
</g>
<!-- PropertyFeature -->
<g id="node6" class="node"><title>PropertyFeature</title>
<polyline fill="none" stroke="black" points="232.049,-738.5 352.049,-738.5 "/>
<path fill="none" stroke="black" d="M352.049,-738.5C358.049,-738.5 364.049,-744.5 364.049,-750.5"/>
<polyline fill="none" stroke="black" points="364.049,-750.5 364.049,-837.5 "/>
<path fill="none" stroke="black" d="M364.049,-837.5C364.049,-843.5 358.049,-849.5 352.049,-849.5"/>
<polyline fill="none" stroke="black" points="352.049,-849.5 232.049,-849.5 "/>
<path fill="none" stroke="black" d="M232.049,-849.5C226.049,-849.5 220.049,-843.5 220.049,-837.5"/>
<polyline fill="none" stroke="black" points="220.049,-837.5 220.049,-750.5 "/>
<path fill="none" stroke="black" d="M220.049,-750.5C220.049,-744.5 226.049,-738.5 232.049,-738.5"/>
<text text-anchor="middle" x="292.049" y="-832.9" font-family="Times Roman,serif" font-size="14.00">PropertyFeature</text>
<polyline fill="none" stroke="black" points="220.049,-822.5 364.049,-822.5 "/>
<text text-anchor="start" x="228.049" y="-805.9" font-family="Times Roman,serif" font-size="14.00">id :INTEGER</text>
<text text-anchor="start" x="228.049" y="-786.9" font-family="Times Roman,serif" font-size="14.00">name :text</text>
<text text-anchor="start" x="228.049" y="-767.9" font-family="Times Roman,serif" font-size="14.00">created_at :datetime</text>
<text text-anchor="start" x="228.049" y="-748.9" font-family="Times Roman,serif" font-size="14.00">updated_at :datetime</text>
</g>
<!-- Property&#45;&gt;PropertyFeature -->
<g id="edge6" class="edge"><title>Property&#45;&gt;PropertyFeature</title>
<path fill="none" stroke="#32f234" d="M411.266,-1161.22C379.729,-1064.08 338.166,-936.05 313.367,-859.666"/>
<polygon fill="#32f234" stroke="#32f234" points="411.331,-1161.42 410.139,-1172.32 412.875,-1166.18 414.419,-1170.93 414.419,-1170.93 414.419,-1170.93 412.875,-1166.18 418.699,-1169.54 411.331,-1161.42 411.331,-1161.42"/>
<polygon fill="#32f234" stroke="#32f234" points="313.219,-859.208 314.411,-848.307 311.675,-854.453 310.131,-849.697 310.131,-849.697 310.131,-849.697 311.675,-854.453 305.851,-851.087 313.219,-859.208 313.219,-859.208"/>
</g>
<!-- PropertyImage -->
<g id="node7" class="node"><title>PropertyImage</title>
<polyline fill="none" stroke="black" points="394.049,-719.5 514.049,-719.5 "/>
<path fill="none" stroke="black" d="M514.049,-719.5C520.049,-719.5 526.049,-725.5 526.049,-731.5"/>
<polyline fill="none" stroke="black" points="526.049,-731.5 526.049,-856.5 "/>
<path fill="none" stroke="black" d="M526.049,-856.5C526.049,-862.5 520.049,-868.5 514.049,-868.5"/>
<polyline fill="none" stroke="black" points="514.049,-868.5 394.049,-868.5 "/>
<path fill="none" stroke="black" d="M394.049,-868.5C388.049,-868.5 382.049,-862.5 382.049,-856.5"/>
<polyline fill="none" stroke="black" points="382.049,-856.5 382.049,-731.5 "/>
<path fill="none" stroke="black" d="M382.049,-731.5C382.049,-725.5 388.049,-719.5 394.049,-719.5"/>
<text text-anchor="middle" x="454.049" y="-851.9" font-family="Times Roman,serif" font-size="14.00">PropertyImage</text>
<polyline fill="none" stroke="black" points="382.049,-841.5 526.049,-841.5 "/>
<text text-anchor="start" x="390.049" y="-824.9" font-family="Times Roman,serif" font-size="14.00">id :INTEGER</text>
<text text-anchor="start" x="390.049" y="-805.9" font-family="Times Roman,serif" font-size="14.00">file_name :text</text>
<text text-anchor="start" x="390.049" y="-786.9" font-family="Times Roman,serif" font-size="14.00">order :integer</text>
<text text-anchor="start" x="390.049" y="-767.9" font-family="Times Roman,serif" font-size="14.00">created_at :datetime</text>
<text text-anchor="start" x="390.049" y="-748.9" font-family="Times Roman,serif" font-size="14.00">updated_at :datetime</text>
<text text-anchor="start" x="390.049" y="-729.9" font-family="Times Roman,serif" font-size="14.00">property_id :integer</text>
</g>
<!-- Property&#45;&gt;PropertyImage -->
<g id="edge10" class="edge"><title>Property&#45;&gt;PropertyImage</title>
<path fill="none" stroke="#a66e78" d="M454.049,-1162.82C454.049,-1073.26 454.049,-956.852 454.049,-878.998"/>
<ellipse fill="none" stroke="#a66e78" cx="454.049" cy="-1166.93" rx="4" ry="4"/>
<polygon fill="#a66e78" stroke="#a66e78" points="454.049,-878.751 458.549,-868.751 454.049,-873.751 454.049,-868.751 454.049,-868.751 454.049,-868.751 454.049,-873.751 449.549,-868.751 454.049,-878.751 454.049,-878.751"/>
</g>
<!-- PropertyReview -->
<g id="node8" class="node"><title>PropertyReview</title>
<polyline fill="none" stroke="black" points="556.049,-700.5 676.049,-700.5 "/>
<path fill="none" stroke="black" d="M676.049,-700.5C682.049,-700.5 688.049,-706.5 688.049,-712.5"/>
<polyline fill="none" stroke="black" points="688.049,-712.5 688.049,-875.5 "/>
<path fill="none" stroke="black" d="M688.049,-875.5C688.049,-881.5 682.049,-887.5 676.049,-887.5"/>
<polyline fill="none" stroke="black" points="676.049,-887.5 556.049,-887.5 "/>
<path fill="none" stroke="black" d="M556.049,-887.5C550.049,-887.5 544.049,-881.5 544.049,-875.5"/>
<polyline fill="none" stroke="black" points="544.049,-875.5 544.049,-712.5 "/>
<path fill="none" stroke="black" d="M544.049,-712.5C544.049,-706.5 550.049,-700.5 556.049,-700.5"/>
<text text-anchor="middle" x="616.049" y="-870.9" font-family="Times Roman,serif" font-size="14.00">PropertyReview</text>
<polyline fill="none" stroke="black" points="544.049,-860.5 688.049,-860.5 "/>
<text text-anchor="start" x="552.049" y="-843.9" font-family="Times Roman,serif" font-size="14.00">id :INTEGER</text>
<text text-anchor="start" x="552.049" y="-824.9" font-family="Times Roman,serif" font-size="14.00">property_id :integer</text>
<text text-anchor="start" x="552.049" y="-805.9" font-family="Times Roman,serif" font-size="14.00">user_id :integer</text>
<text text-anchor="start" x="552.049" y="-786.9" font-family="Times Roman,serif" font-size="14.00">comment :text</text>
<text text-anchor="start" x="552.049" y="-767.9" font-family="Times Roman,serif" font-size="14.00">created_at :datetime</text>
<text text-anchor="start" x="552.049" y="-748.9" font-family="Times Roman,serif" font-size="14.00">updated_at :datetime</text>
<text text-anchor="start" x="552.049" y="-729.9" font-family="Times Roman,serif" font-size="14.00">booking_id :integer</text>
<text text-anchor="start" x="552.049" y="-710.9" font-family="Times Roman,serif" font-size="14.00">rating :integer</text>
</g>
<!-- Property&#45;&gt;PropertyReview -->
<g id="edge12" class="edge"><title>Property&#45;&gt;PropertyReview</title>
<path fill="none" stroke="#de69c1" d="M465.943,-1162.67C475.135,-1067.31 487.38,-953.04 494.049,-944 505.864,-927.985 520.049,-939.078 535.049,-926 545.16,-917.185 554.406,-906.792 562.741,-895.771"/>
<ellipse fill="none" stroke="#de69c1" cx="465.558" cy="-1166.68" rx="4" ry="4"/>
<polygon fill="#de69c1" stroke="#de69c1" points="562.766,-895.736 572.288,-890.296 565.707,-891.693 568.648,-887.649 568.648,-887.649 568.648,-887.649 565.707,-891.693 565.009,-885.002 562.766,-895.736 562.766,-895.736"/>
</g>
<!-- Tenant -->
<g id="node9" class="node"><title>Tenant</title>
<polyline fill="none" stroke="black" points="507.549,-945 688.549,-945 "/>
<path fill="none" stroke="black" d="M688.549,-945C694.549,-945 700.549,-951 700.549,-957"/>
<polyline fill="none" stroke="black" points="700.549,-957 700.549,-1139 "/>
<path fill="none" stroke="black" d="M700.549,-1139C700.549,-1145 694.549,-1151 688.549,-1151"/>
<polyline fill="none" stroke="black" points="688.549,-1151 507.549,-1151 "/>
<path fill="none" stroke="black" d="M507.549,-1151C501.549,-1151 495.549,-1145 495.549,-1139"/>
<polyline fill="none" stroke="black" points="495.549,-1139 495.549,-957 "/>
<path fill="none" stroke="black" d="M495.549,-957C495.549,-951 501.549,-945 507.549,-945"/>
<text text-anchor="middle" x="598.049" y="-1134.4" font-family="Times Roman,serif" font-size="14.00">Tenant</text>
<polyline fill="none" stroke="black" points="495.549,-1124 700.549,-1124 "/>
<text text-anchor="start" x="503.549" y="-1107.4" font-family="Times Roman,serif" font-size="14.00">id :INTEGER</text>
<text text-anchor="start" x="503.549" y="-1088.4" font-family="Times Roman,serif" font-size="14.00">user_id :integer</text>
<text text-anchor="start" x="503.549" y="-1069.4" font-family="Times Roman,serif" font-size="14.00">start :date</text>
<text text-anchor="start" x="503.549" y="-1050.4" font-family="Times Roman,serif" font-size="14.00">end :date</text>
<text text-anchor="start" x="503.549" y="-1031.4" font-family="Times Roman,serif" font-size="14.00">maximum_daily_points :integer</text>
<text text-anchor="start" x="503.549" y="-1012.4" font-family="Times Roman,serif" font-size="14.00">suburb :text</text>
<text text-anchor="start" x="503.549" y="-993.4" font-family="Times Roman,serif" font-size="14.00">created_at :datetime</text>
<text text-anchor="start" x="503.549" y="-974.4" font-family="Times Roman,serif" font-size="14.00">updated_at :datetime</text>
<text text-anchor="start" x="503.549" y="-955.4" font-family="Times Roman,serif" font-size="14.00">active :boolean</text>
</g>
<!-- Tenant&#45;&gt;Booking -->
<g id="edge14" class="edge"><title>Tenant&#45;&gt;Booking</title>
<path fill="none" stroke="#0b5944" d="M692.353,-937.637C694.085,-933.799 695.66,-929.916 697.049,-926 736.272,-815.417 748.117,-767.637 697.049,-662 652.609,-570.072 557.351,-501.086 481.737,-458.028"/>
<ellipse fill="none" stroke="#0b5944" cx="690.565" cy="-941.357" rx="4.00002" ry="4.00002"/>
<polygon fill="#0b5944" stroke="#0b5944" points="481.337,-457.803 474.822,-448.983 476.978,-455.355 472.618,-452.906 472.618,-452.906 472.618,-452.906 476.978,-455.355 470.414,-456.83 481.337,-457.803 481.337,-457.803"/>
</g>
<!-- User -->
<g id="node10" class="node"><title>User</title>
<polyline fill="none" stroke="black" points="616.049,-1473 736.049,-1473 "/>
<path fill="none" stroke="black" d="M736.049,-1473C742.049,-1473 748.049,-1479 748.049,-1485"/>
<polyline fill="none" stroke="black" points="748.049,-1485 748.049,-1743 "/>
<path fill="none" stroke="black" d="M748.049,-1743C748.049,-1749 742.049,-1755 736.049,-1755"/>
<polyline fill="none" stroke="black" points="736.049,-1755 616.049,-1755 "/>
<path fill="none" stroke="black" d="M616.049,-1755C610.049,-1755 604.049,-1749 604.049,-1743"/>
<polyline fill="none" stroke="black" points="604.049,-1743 604.049,-1485 "/>
<path fill="none" stroke="black" d="M604.049,-1485C604.049,-1479 610.049,-1473 616.049,-1473"/>
<text text-anchor="middle" x="676.049" y="-1738.4" font-family="Times Roman,serif" font-size="14.00">User</text>
<polyline fill="none" stroke="black" points="604.049,-1728 748.049,-1728 "/>
<text text-anchor="start" x="612.049" y="-1711.4" font-family="Times Roman,serif" font-size="14.00">id :INTEGER</text>
<text text-anchor="start" x="612.049" y="-1692.4" font-family="Times Roman,serif" font-size="14.00">email_address :text</text>
<text text-anchor="start" x="612.049" y="-1673.4" font-family="Times Roman,serif" font-size="14.00">password :text</text>
<text text-anchor="start" x="612.049" y="-1654.4" font-family="Times Roman,serif" font-size="14.00">first_name :text</text>
<text text-anchor="start" x="612.049" y="-1635.4" font-family="Times Roman,serif" font-size="14.00">last_name :text</text>
<text text-anchor="start" x="612.049" y="-1616.4" font-family="Times Roman,serif" font-size="14.00">address_1 :text</text>
<text text-anchor="start" x="612.049" y="-1597.4" font-family="Times Roman,serif" font-size="14.00">address_2 :text</text>
<text text-anchor="start" x="612.049" y="-1578.4" font-family="Times Roman,serif" font-size="14.00">suburb :text</text>
<text text-anchor="start" x="612.049" y="-1559.4" font-family="Times Roman,serif" font-size="14.00">state :text</text>
<text text-anchor="start" x="612.049" y="-1540.4" font-family="Times Roman,serif" font-size="14.00">post_code :text</text>
<text text-anchor="start" x="612.049" y="-1521.4" font-family="Times Roman,serif" font-size="14.00">phone :text</text>
<text text-anchor="start" x="612.049" y="-1502.4" font-family="Times Roman,serif" font-size="14.00">created_at :datetime</text>
<text text-anchor="start" x="612.049" y="-1483.4" font-family="Times Roman,serif" font-size="14.00">updated_at :datetime</text>
</g>
<!-- User&#45;&gt;Booking -->
<g id="edge20" class="edge"><title>User&#45;&gt;Booking</title>
<path fill="none" stroke="#47d36e" d="M597.354,-1473.53C596.592,-1473.01 595.824,-1472.5 595.049,-1472 559.23,-1448.88 446.233,-1460.17 404.049,-1454 318.407,-1441.48 279.025,-1472.02 213.049,-1416 35.7253,-1265.43 70.6064,-1154.88 29.049,-926 8.08797,-810.554 -23.6926,-766.811 29.049,-662 54.9503,-610.527 175.27,-527.928 266.594,-470.528"/>
<ellipse fill="none" stroke="#47d36e" cx="600.817" cy="-1476.09" rx="4.00002" ry="4.00002"/>
<polygon fill="#47d36e" stroke="#47d36e" points="266.862,-470.361 277.726,-468.868 271.1,-467.708 275.338,-465.054 275.338,-465.054 275.338,-465.054 271.1,-467.708 272.95,-461.24 266.862,-470.361 266.862,-470.361"/>
</g>
<!-- User&#45;&gt;Listing -->
<g id="edge18" class="edge"><title>User&#45;&gt;Listing</title>
<path fill="none" stroke="#65ebeb" d="M597.6,-1473.99C596.757,-1473.32 595.907,-1472.65 595.049,-1472 514.026,-1410.44 455.293,-1475.92 373.049,-1416 261.217,-1334.52 261.907,-1279.45 208.049,-1152 178.961,-1083.17 158.101,-1002.65 144.014,-935.429"/>
<ellipse fill="none" stroke="#65ebeb" cx="600.872" cy="-1476.79" rx="4.00002" ry="4.00002"/>
<polygon fill="#65ebeb" stroke="#65ebeb" points="144.009,-935.403 146.392,-924.699 142.997,-930.507 141.985,-925.61 141.985,-925.61 141.985,-925.61 142.997,-930.507 137.578,-926.521 144.009,-935.403 144.009,-935.403"/>
</g>
<!-- User&#45;&gt;PointLog -->
<g id="edge22" class="edge"><title>User&#45;&gt;PointLog</title>
<path fill="none" stroke="#eb9f6d" d="M727.815,-1464.92C742.242,-1411.39 754.049,-1350.12 754.049,-1293 754.049,-1293 754.049,-1293 754.049,-406 754.049,-319.101 721.809,-224.737 693.759,-159.082"/>
<ellipse fill="none" stroke="#eb9f6d" cx="726.725" cy="-1468.91" rx="4.00001" ry="4.00001"/>
<polygon fill="#eb9f6d" stroke="#eb9f6d" points="693.63,-158.784 693.784,-147.819 691.642,-154.196 689.655,-149.608 689.655,-149.608 689.655,-149.608 691.642,-154.196 685.526,-151.397 693.63,-158.784 693.63,-158.784"/>
</g>
<!-- User&#45;&gt;Property -->
<g id="edge16" class="edge"><title>User&#45;&gt;Property</title>
<path fill="none" stroke="#b5eb92" d="M599.446,-1478.61C597.982,-1476.38 596.516,-1474.18 595.049,-1472 575.939,-1443.63 553.653,-1414.01 532.517,-1387.21"/>
<ellipse fill="none" stroke="#b5eb92" cx="601.652" cy="-1482.01" rx="4.00002" ry="4.00002"/>
<polygon fill="#b5eb92" stroke="#b5eb92" points="532.507,-1387.2 529.822,-1376.56 529.401,-1383.28 526.295,-1379.36 526.295,-1379.36 526.295,-1379.36 529.401,-1383.28 522.769,-1382.15 532.507,-1387.2 532.507,-1387.2"/>
</g>
<!-- User&#45;&gt;PropertyReview -->
<g id="edge24" class="edge"><title>User&#45;&gt;PropertyReview</title>
<path fill="none" stroke="#b4fd7e" d="M706.167,-1464.66C728.198,-1327.04 747.018,-1118.36 701.049,-944 696.878,-928.181 690.614,-912.279 683.34,-897.051"/>
<ellipse fill="none" stroke="#b4fd7e" cx="705.487" cy="-1468.85" rx="4.00001" ry="4.00001"/>
<polygon fill="#b4fd7e" stroke="#b4fd7e" points="683.129,-896.624 682.723,-885.666 680.91,-892.144 678.691,-887.663 678.691,-887.663 678.691,-887.663 680.91,-892.144 674.658,-889.66 683.129,-896.624 683.129,-896.624"/>
</g>
<!-- User&#45;&gt;Tenant -->
<g id="edge30" class="edge"><title>User&#45;&gt;Tenant</title>
<path fill="none" stroke="#8b1ed8" d="M655.52,-1465.03C642.408,-1369.89 625.674,-1248.46 613.649,-1161.2"/>
<ellipse fill="none" stroke="#8b1ed8" cx="656.072" cy="-1469.04" rx="4.00001" ry="4.00001"/>
<polygon fill="#8b1ed8" stroke="#8b1ed8" points="613.645,-1161.17 616.738,-1150.65 612.962,-1156.22 612.28,-1151.26 612.28,-1151.26 612.28,-1151.26 612.962,-1156.22 607.822,-1151.88 613.645,-1161.17 613.645,-1161.17"/>
</g>
<!-- UserReview -->
<g id="node11" class="node"><title>UserReview</title>
<polyline fill="none" stroke="black" points="794.049,-1199.5 914.049,-1199.5 "/>
<path fill="none" stroke="black" d="M914.049,-1199.5C920.049,-1199.5 926.049,-1205.5 926.049,-1211.5"/>
<polyline fill="none" stroke="black" points="926.049,-1211.5 926.049,-1374.5 "/>
<path fill="none" stroke="black" d="M926.049,-1374.5C926.049,-1380.5 920.049,-1386.5 914.049,-1386.5"/>
<polyline fill="none" stroke="black" points="914.049,-1386.5 794.049,-1386.5 "/>
<path fill="none" stroke="black" d="M794.049,-1386.5C788.049,-1386.5 782.049,-1380.5 782.049,-1374.5"/>
<polyline fill="none" stroke="black" points="782.049,-1374.5 782.049,-1211.5 "/>
<path fill="none" stroke="black" d="M782.049,-1211.5C782.049,-1205.5 788.049,-1199.5 794.049,-1199.5"/>
<text text-anchor="middle" x="854.049" y="-1369.9" font-family="Times Roman,serif" font-size="14.00">UserReview</text>
<polyline fill="none" stroke="black" points="782.049,-1359.5 926.049,-1359.5 "/>
<text text-anchor="start" x="790.049" y="-1342.9" font-family="Times Roman,serif" font-size="14.00">id :INTEGER</text>
<text text-anchor="start" x="790.049" y="-1323.9" font-family="Times Roman,serif" font-size="14.00">rating :integer</text>
<text text-anchor="start" x="790.049" y="-1304.9" font-family="Times Roman,serif" font-size="14.00">comment :text</text>
<text text-anchor="start" x="790.049" y="-1285.9" font-family="Times Roman,serif" font-size="14.00">created_at :datetime</text>
<text text-anchor="start" x="790.049" y="-1266.9" font-family="Times Roman,serif" font-size="14.00">updated_at :datetime</text>
<text text-anchor="start" x="790.049" y="-1247.9" font-family="Times Roman,serif" font-size="14.00">author_id :integer</text>
<text text-anchor="start" x="790.049" y="-1228.9" font-family="Times Roman,serif" font-size="14.00">user_id :integer</text>
<text text-anchor="start" x="790.049" y="-1209.9" font-family="Times Roman,serif" font-size="14.00">booking_id :integer</text>
</g>
<!-- User&#45;&gt;UserReview -->
<g id="edge26" class="edge"><title>User&#45;&gt;UserReview</title>
<path fill="none" stroke="#739ab0" d="M752.189,-1482.34C757.59,-1472.77 762.923,-1463.25 768.049,-1454 778.442,-1435.25 789.347,-1415.17 799.768,-1395.77"/>
<ellipse fill="none" stroke="#739ab0" cx="750.215" cy="-1485.83" rx="4.00002" ry="4.00002"/>
<polygon fill="#739ab0" stroke="#739ab0" points="799.792,-1395.73 808.484,-1389.04 802.155,-1391.32 804.518,-1386.92 804.518,-1386.92 804.518,-1386.92 802.155,-1391.32 800.552,-1384.79 799.792,-1395.73 799.792,-1395.73"/>
</g>
<!-- User&#45;&gt;UserReview -->
<g id="edge28" class="edge"><title>User&#45;&gt;UserReview</title>
<path fill="none" stroke="#7a06c0" d="M752.895,-1508.63C764.626,-1490.78 776.116,-1472.14 786.049,-1454 796.05,-1435.73 805.576,-1415.69 814.163,-1396.14"/>
<ellipse fill="none" stroke="#7a06c0" cx="750.423" cy="-1512.36" rx="4.00002" ry="4.00002"/>
<polygon fill="#7a06c0" stroke="#7a06c0" points="814.193,-1396.07 822.299,-1388.68 816.182,-1391.48 818.17,-1386.89 818.17,-1386.89 818.17,-1386.89 816.182,-1391.48 814.041,-1385.1 814.193,-1396.07 814.193,-1396.07"/>
<text text-anchor="middle" x="841.049" y="-1440.9" font-family="Times Roman,serif" font-size="14.00">written_reviews</text>
</g>
</g>
</svg>
