<?xml version="1.0" encoding="UTF-8" standalone="no"?>
<!DOCTYPE svg PUBLIC "-//W3C//DTD SVG 1.1//EN"
 "http://www.w3.org/Graphics/SVG/1.1/DTD/svg11.dtd">
<!-- Generated by graphviz version 2.26.3 (20100126.1600)
 -->
<!-- Title: models_diagram Pages: 1 -->
<svg width="847pt" height="460pt"
 viewBox="0.00 0.00 847.39 460.00" xmlns="http://www.w3.org/2000/svg" xmlns:xlink="http://www.w3.org/1999/xlink">
<g id="graph1" class="graph" transform="scale(1 1) rotate(0) translate(4 456)">
<title>models_diagram</title>
<polygon fill="none" stroke="none" points="-4,5 -4,-456 844.385,-456 844.385,5 -4,5"/>
<!-- _diagram_info -->
<g id="node1" class="node"><title>_diagram_info</title>
<text text-anchor="start" x="294.885" y="-435.8" font-family="Times Roman,serif" font-size="13.00">Models diagram</text>
<text text-anchor="start" x="294.885" y="-418.8" font-family="Times Roman,serif" font-size="13.00">Date: Oct 19 2015 &#45; 23:36</text>
<text text-anchor="start" x="294.885" y="-401.8" font-family="Times Roman,serif" font-size="13.00">Migration version: 20151016120121</text>
<text text-anchor="start" x="294.885" y="-384.8" font-family="Times Roman,serif" font-size="13.00">Generated by RailRoady 1.4.0</text>
<text text-anchor="start" x="294.885" y="-367.8" font-family="Times Roman,serif" font-size="13.00">http://railroady.prestonlee.com</text>
</g>
<!-- Booking -->
<g id="node2" class="node"><title>Booking</title>
<ellipse fill="none" stroke="black" cx="470.385" cy="-95" rx="45.9619" ry="19.0919"/>
<text text-anchor="middle" x="470.385" y="-91.9" font-family="Times Roman,serif" font-size="14.00">Booking</text>
</g>
<!-- PointLog -->
<g id="node4" class="node"><title>PointLog</title>
<ellipse fill="none" stroke="black" cx="623.385" cy="-19" rx="48.9975" ry="19.0919"/>
<text text-anchor="middle" x="623.385" y="-15.9" font-family="Times Roman,serif" font-size="14.00">PointLog</text>
</g>
<!-- Booking&#45;&gt;PointLog -->
<g id="edge2" class="edge"><title>Booking&#45;&gt;PointLog</title>
<path fill="none" stroke="#4bcde6" d="M507.066,-76.7794C530.317,-65.2303 560.371,-50.3015 584.105,-38.5119"/>
<ellipse fill="none" stroke="#4bcde6" cx="503.468" cy="-78.5669" rx="4.00002" ry="4.00002"/>
<polygon fill="#4bcde6" stroke="#4bcde6" points="584.236,-38.4469 595.194,-38.0283 588.714,-36.2225 593.192,-33.9981 593.192,-33.9981 593.192,-33.9981 588.714,-36.2225 591.19,-29.968 584.236,-38.4469 584.236,-38.4469"/>
</g>
<!-- Listing -->
<g id="node3" class="node"><title>Listing</title>
<ellipse fill="none" stroke="black" cx="55.3855" cy="-171" rx="39.0967" ry="19.0919"/>
<text text-anchor="middle" x="55.3855" y="-167.9" font-family="Times Roman,serif" font-size="14.00">Listing</text>
</g>
<!-- Listing&#45;&gt;Booking -->
<g id="edge4" class="edge"><title>Listing&#45;&gt;Booking</title>
<path fill="none" stroke="#38fc3a" d="M92.1204,-155.505C95.8874,-154.205 99.6883,-153.005 103.385,-152 211.614,-122.571 342.204,-106.818 414.8,-99.7437"/>
<ellipse fill="none" stroke="#38fc3a" cx="88.2388" cy="-156.919" rx="4.00001" ry="4.00001"/>
<polygon fill="#38fc3a" stroke="#38fc3a" points="415.126,-99.7127 425.508,-103.242 420.103,-99.2374 425.08,-98.7622 425.08,-98.7622 425.08,-98.7622 420.103,-99.2374 424.653,-94.2826 415.126,-99.7127 415.126,-99.7127"/>
</g>
<!-- Property -->
<g id="node5" class="node"><title>Property</title>
<ellipse fill="none" stroke="black" cx="365.385" cy="-283" rx="48.0833" ry="19.0919"/>
<text text-anchor="middle" x="365.385" y="-279.9" font-family="Times Roman,serif" font-size="14.00">Property</text>
</g>
<!-- Property&#45;&gt;Listing -->
<g id="edge8" class="edge"><title>Property&#45;&gt;Listing</title>
<path fill="none" stroke="#6dc59b" d="M319.394,-268.998C298.013,-262.318 272.302,-254.042 249.385,-246 183.808,-222.986 168.141,-215.234 103.385,-190 100.724,-188.963 97.9806,-187.889 95.2177,-186.805"/>
<ellipse fill="none" stroke="#6dc59b" cx="323.243" cy="-270.195" rx="4.00001" ry="4.00001"/>
<polygon fill="#6dc59b" stroke="#6dc59b" points="95.1416,-186.775 87.4861,-178.923 90.4894,-184.942 85.8371,-183.11 85.8371,-183.11 85.8371,-183.11 90.4894,-184.942 84.1882,-187.297 95.1416,-186.775 95.1416,-186.775"/>
</g>
<!-- PropertyFeature -->
<g id="node6" class="node"><title>PropertyFeature</title>
<ellipse fill="none" stroke="black" cx="192.385" cy="-171" rx="80.1095" ry="19.0919"/>
<text text-anchor="middle" x="192.385" y="-167.9" font-family="Times Roman,serif" font-size="14.00">PropertyFeature</text>
</g>
<!-- Property&#45;&gt;PropertyFeature -->
<g id="edge6" class="edge"><title>Property&#45;&gt;PropertyFeature</title>
<path fill="none" stroke="#49e484" d="M331.51,-261.069C301.909,-241.905 259.046,-214.156 228.735,-194.532"/>
<polygon fill="#49e484" stroke="#49e484" points="331.835,-261.28 337.784,-270.492 336.033,-263.997 340.23,-266.714 340.23,-266.714 340.23,-266.714 336.033,-263.997 342.675,-262.937 331.835,-261.28 331.835,-261.28"/>
<polygon fill="#49e484" stroke="#49e484" points="228.545,-194.409 222.596,-185.197 224.347,-191.692 220.15,-188.975 220.15,-188.975 220.15,-188.975 224.347,-191.692 217.705,-192.752 228.545,-194.409 228.545,-194.409"/>
</g>
<!-- PropertyImage -->
<g id="node7" class="node"><title>PropertyImage</title>
<ellipse fill="none" stroke="black" cx="365.385" cy="-171" rx="74.9533" ry="19.0919"/>
<text text-anchor="middle" x="365.385" y="-167.9" font-family="Times Roman,serif" font-size="14.00">PropertyImage</text>
</g>
<!-- Property&#45;&gt;PropertyImage -->
<g id="edge10" class="edge"><title>Property&#45;&gt;PropertyImage</title>
<path fill="none" stroke="#d44be9" d="M365.385,-255.495C365.385,-238.65 365.385,-217.117 365.385,-200.004"/>
<ellipse fill="none" stroke="#d44be9" cx="365.386" cy="-259.747" rx="4" ry="4"/>
<polygon fill="#d44be9" stroke="#d44be9" points="365.386,-200.002 369.885,-190.002 365.386,-195.002 365.385,-190.002 365.385,-190.002 365.385,-190.002 365.386,-195.002 360.885,-190.002 365.386,-200.002 365.386,-200.002"/>
</g>
<!-- PropertyReview -->
<g id="node8" class="node"><title>PropertyReview</title>
<ellipse fill="none" stroke="black" cx="537.385" cy="-171" rx="79.196" ry="19.0919"/>
<text text-anchor="middle" x="537.385" y="-167.9" font-family="Times Roman,serif" font-size="14.00">PropertyReview</text>
</g>
<!-- Property&#45;&gt;PropertyReview -->
<g id="edge12" class="edge"><title>Property&#45;&gt;PropertyReview</title>
<path fill="none" stroke="#0f0d1d" d="M397.421,-262.139C426.841,-242.982 470.4,-214.619 501.094,-194.632"/>
<ellipse fill="none" stroke="#0f0d1d" cx="393.748" cy="-264.532" rx="4.00002" ry="4.00002"/>
<polygon fill="#0f0d1d" stroke="#0f0d1d" points="501.401,-194.432 512.237,-192.746 505.591,-191.703 509.781,-188.975 509.781,-188.975 509.781,-188.975 505.591,-191.703 507.326,-185.204 501.401,-194.432 501.401,-194.432"/>
</g>
<!-- Tenant -->
<g id="node9" class="node"><title>Tenant</title>
<ellipse fill="none" stroke="black" cx="534.385" cy="-227" rx="41.2167" ry="19.0919"/>
<text text-anchor="middle" x="534.385" y="-223.9" font-family="Times Roman,serif" font-size="14.00">Tenant</text>
</g>
<!-- Tenant&#45;&gt;Booking -->
<g id="edge14" class="edge"><title>Tenant&#45;&gt;Booking</title>
<path fill="none" stroke="#9b9812" d="M582.067,-218.919C598.613,-213.578 615.485,-204.713 625.385,-190 634.814,-175.988 635.05,-165.851 625.385,-152 612.957,-134.187 560.949,-117.494 520.564,-106.834"/>
<ellipse fill="none" stroke="#9b9812" cx="577.843" cy="-220.149" rx="4.00001" ry="4.00001"/>
<polygon fill="#9b9812" stroke="#9b9812" points="520.522,-106.823 511.965,-99.966 515.681,-105.573 510.84,-104.323 510.84,-104.323 510.84,-104.323 515.681,-105.573 509.715,-108.68 520.522,-106.823 520.522,-106.823"/>
</g>
<!-- User -->
<g id="node10" class="node"><title>User</title>
<ellipse fill="none" stroke="black" cx="567.385" cy="-405" rx="31.8198" ry="19.0919"/>
<text text-anchor="middle" x="567.385" y="-401.9" font-family="Times Roman,serif" font-size="14.00">User</text>
</g>
<!-- User&#45;&gt;Booking -->
<g id="edge20" class="edge"><title>User&#45;&gt;Booking</title>
<path fill="none" stroke="#35cb34" d="M551.232,-379.949C544.561,-371.615 536.101,-363.153 526.385,-358 468.237,-327.159 444.415,-350.179 379.385,-340 290.426,-326.076 264.166,-334.993 180.385,-302 95.1604,-268.438 50.6055,-270.757 7.3855,-190 -0.583656,-175.109 -3.80339,-164.651 7.3855,-152 33.9805,-121.93 297.095,-104.248 414.419,-97.8014"/>
<ellipse fill="none" stroke="#35cb34" cx="554.003" cy="-383.644" rx="4.00002" ry="4.00002"/>
<polygon fill="#35cb34" stroke="#35cb34" points="414.648,-97.7892 424.877,-101.742 419.641,-97.5188 424.633,-97.2485 424.633,-97.2485 424.633,-97.2485 419.641,-97.5188 424.39,-92.755 414.648,-97.7892 414.648,-97.7892"/>
</g>
<!-- User&#45;&gt;Listing -->
<g id="edge18" class="edge"><title>User&#45;&gt;Listing</title>
<path fill="none" stroke="#404811" d="M550.534,-380.242C543.875,-372.097 535.603,-363.682 526.385,-358 521.063,-354.719 314.371,-303.806 308.385,-302 235.856,-280.112 213.529,-282.941 147.385,-246 122.579,-232.145 97.8051,-211.458 80.2255,-195.317"/>
<ellipse fill="none" stroke="#404811" cx="553.285" cy="-383.793" rx="4.00002" ry="4.00002"/>
<polygon fill="#404811" stroke="#404811" points="79.9846,-195.092 75.7538,-184.975 76.3324,-191.677 72.6803,-188.262 72.6803,-188.262 72.6803,-188.262 76.3324,-191.677 69.6068,-191.549 79.9846,-195.092 79.9846,-195.092"/>
</g>
<!-- User&#45;&gt;PointLog -->
<g id="edge22" class="edge"><title>User&#45;&gt;PointLog</title>
<path fill="none" stroke="#211144" d="M599.065,-388.849C633.106,-368.973 682.385,-331.778 682.385,-283 682.385,-283 682.385,-283 682.385,-95 682.385,-74.5641 668.91,-56.3031 654.84,-42.8057"/>
<ellipse fill="none" stroke="#211144" cx="595.535" cy="-390.851" rx="4.00002" ry="4.00002"/>
<polygon fill="#211144" stroke="#211144" points="654.488,-42.4902 650.048,-32.4635 650.765,-39.1519 647.043,-35.8137 647.043,-35.8137 647.043,-35.8137 650.765,-39.1519 644.039,-39.1638 654.488,-42.4902 654.488,-42.4902"/>
</g>
<!-- User&#45;&gt;Property -->
<g id="edge16" class="edge"><title>User&#45;&gt;Property</title>
<path fill="none" stroke="#2d3156" d="M549.592,-380.783C542.935,-372.834 534.905,-364.406 526.385,-358 491.392,-331.689 445.69,-311.493 411.922,-298.722"/>
<ellipse fill="none" stroke="#2d3156" cx="552.33" cy="-384.179" rx="4.00002" ry="4.00002"/>
<polygon fill="#2d3156" stroke="#2d3156" points="411.671,-298.629 403.855,-290.938 406.982,-296.894 402.293,-295.158 402.293,-295.158 402.293,-295.158 406.982,-296.894 400.731,-299.379 411.671,-298.629 411.671,-298.629"/>
</g>
<!-- User&#45;&gt;PropertyReview -->
<g id="edge24" class="edge"><title>User&#45;&gt;PropertyReview</title>
<path fill="none" stroke="#32da4c" d="M575.695,-378.312C586.353,-339.164 600.741,-264.678 576.385,-208 574.686,-204.045 572.333,-200.314 569.617,-196.854"/>
<ellipse fill="none" stroke="#32da4c" cx="574.579" cy="-382.261" rx="4.00001" ry="4.00001"/>
<polygon fill="#32da4c" stroke="#32da4c" points="569.479,-196.702 566.089,-186.274 566.118,-193 562.757,-189.298 562.757,-189.298 562.757,-189.298 566.118,-193 559.425,-192.323 569.479,-196.702 569.479,-196.702"/>
</g>
<!-- User&#45;&gt;Tenant -->
<g id="edge30" class="edge"><title>User&#45;&gt;Tenant</title>
<path fill="none" stroke="#ea9083" d="M562.335,-377.759C556.252,-344.947 546.074,-290.046 539.823,-256.329"/>
<ellipse fill="none" stroke="#ea9083" cx="563.125" cy="-382.018" rx="4.00001" ry="4.00001"/>
<polygon fill="#ea9083" stroke="#ea9083" points="539.765,-256.014 542.366,-245.361 538.853,-251.097 537.942,-246.181 537.942,-246.181 537.942,-246.181 538.853,-251.097 533.517,-247.002 539.765,-256.014 539.765,-256.014"/>
</g>
<!-- UserReview -->
<g id="node11" class="node"><title>UserReview</title>
<ellipse fill="none" stroke="black" cx="773.385" cy="-283" rx="62.9325" ry="19.0919"/>
<text text-anchor="middle" x="773.385" y="-279.9" font-family="Times Roman,serif" font-size="14.00">UserReview</text>
</g>
<!-- User&#45;&gt;UserReview -->
<g id="edge26" class="edge"><title>User&#45;&gt;UserReview</title>
<path fill="none" stroke="#84c5a7" d="M600.81,-390.08C627.36,-377.777 665.095,-359.27 696.385,-340 712.336,-330.177 729.155,-317.965 742.991,-307.367"/>
<ellipse fill="none" stroke="#84c5a7" cx="596.926" cy="-391.866" rx="4.00002" ry="4.00002"/>
<polygon fill="#84c5a7" stroke="#84c5a7" points="743.284,-307.14 753.944,-304.569 747.235,-304.077 751.186,-301.013 751.186,-301.013 751.186,-301.013 747.235,-304.077 748.429,-297.457 743.284,-307.14 743.284,-307.14"/>
</g>
<!-- User&#45;&gt;UserReview -->
<g id="edge28" class="edge"><title>User&#45;&gt;UserReview</title>
<path fill="none" stroke="#77fb22" d="M604.678,-394.983C638.155,-384.785 687.552,-366.666 724.385,-340 735.812,-331.727 746.326,-320.278 754.66,-309.809"/>
<ellipse fill="none" stroke="#77fb22" cx="600.782" cy="-396.142" rx="4.00001" ry="4.00001"/>
<polygon fill="#77fb22" stroke="#77fb22" points="754.782,-309.649 764.429,-304.435 757.817,-305.676 760.853,-301.703 760.853,-301.703 760.853,-301.703 757.817,-305.676 757.277,-298.971 754.782,-309.649 754.782,-309.649"/>
<text text-anchor="middle" x="792.385" y="-326.9" font-family="Times Roman,serif" font-size="14.00">written_reviews</text>
</g>
</g>
</svg>
